<?xml version="1.0" encoding="UTF-8" standalone="no"?>
<!-- Created with Inkscape (http://www.inkscape.org/) -->

<svg
   width="108.10744mm"
   height="19.300951mm"
   viewBox="0 0 108.10744 19.30095"
   version="1.1"
   id="svg1"
   xml:space="preserve"
   inkscape:version="1.3.2 (091e20e, 2023-11-25, custom)"
   sodipodi:docname="unibas+biozentrum.svg"
   xmlns:inkscape="http://www.inkscape.org/namespaces/inkscape"
   xmlns:sodipodi="http://sodipodi.sourceforge.net/DTD/sodipodi-0.dtd"
   xmlns="http://www.w3.org/2000/svg"
   xmlns:svg="http://www.w3.org/2000/svg"><sodipodi:namedview
     id="namedview1"
     pagecolor="#ffffff"
     bordercolor="#000000"
     borderopacity="0.25"
     inkscape:showpageshadow="2"
     inkscape:pageopacity="0.0"
     inkscape:pagecheckerboard="0"
     inkscape:deskcolor="#d1d1d1"
     inkscape:document-units="mm"
     inkscape:zoom="2.8284271"
     inkscape:cx="221.32442"
     inkscape:cy="11.490485"
     inkscape:window-width="1920"
     inkscape:window-height="1129"
     inkscape:window-x="-8"
     inkscape:window-y="-8"
     inkscape:window-maximized="1"
     inkscape:current-layer="layer1" /><defs
     id="defs1" /><g
     inkscape:label="图层 1"
     inkscape:groupmode="layer"
     id="layer1"><g
       id="Group-38"
       style="fill:none;fill-rule:evenodd;stroke:none;stroke-width:1"
       transform="matrix(0.46496439,0,0,0.46496439,66.862048,0.56614626)"><path
         d="M 8.1979927,15.112646 H 5.8039619 c -0.4632244,0 -0.8449165,-0.374456 -0.8449165,-0.828962 V 5.9804316 c 0,-0.4548021 0.3816921,-0.8292579 0.8449165,-0.8292579 h 2.3076669 c 1.6729227,0 2.8983232,1.1319652 2.8983232,2.7297024 0,0.9970663 -0.41823,1.5102753 -0.956344,2.0673635 0.597904,0.5135054 1.161987,1.2054924 1.161987,2.1990014 v 0.117703 c 0,1.627088 -1.3594763,2.847702 -3.0176023,2.847702 M 8.1267274,6.7515792 H 6.5842565 v 2.4332213 h 1.5424709 c 0.6736986,0 1.1508137,-0.5559023 1.1508137,-1.3039244 0,-0.6756806 -0.4786249,-1.1292969 -1.1508137,-1.1292969 m 1.3552485,5.3956618 c 0,-0.800203 -0.5773697,-1.361738 -1.2691866,-1.361738 H 6.5842565 v 2.725551 h 1.6285328 c 0.7413403,0 1.2691866,-0.557088 1.2691866,-1.24611 v -0.117703"
         id="Fill-1"
         fill="#5a2d87" /><path
         d="m 14.119354,15.234499 c -0.433329,0 -0.866357,-0.278692 -0.866357,-0.850308 V 5.9137234 c 0,-0.5722088 0.433028,-0.8500116 0.866357,-0.8500116 0.433027,0 0.866054,0.2778028 0.866054,0.8500116 v 8.4704676 c 0,0.571616 -0.433027,0.850308 -0.866054,0.850308"
         id="Fill-2"
         fill="#5a2d87" /><path
         d="m 20.562824,15.233907 h -0.134378 c -1.642725,0 -2.986499,-1.308669 -2.986499,-2.888024 V 7.8948108 c 0,-1.6273854 1.343774,-2.831099 2.986499,-2.831099 h 0.134378 c 1.658126,0 2.987103,1.2037136 2.987103,2.831099 v 4.4510722 c 0,1.579355 -1.261638,2.888024 -2.987103,2.888024 M 21.81812,7.8524139 c 0,-0.6890223 -0.55291,-1.1877036 -1.255296,-1.1877036 h -0.134378 c -0.701782,0 -1.25439,0.5138019 -1.25439,1.1877036 v 4.4940621 c 0,0.726379 0.535698,1.286135 1.25439,1.286135 h 0.134378 c 0.760062,0 1.255296,-0.5645 1.255296,-1.271607 V 7.8524139"
         id="Fill-3"
         fill="#5a2d87" /><path
         d="m 30.357574,15.112646 h -4.242399 c -0.521505,0 -0.916483,-0.302115 -0.916483,-0.903675 0,-0.160989 0.06673,-0.355184 0.155817,-0.5224 L 29.207666,6.7515792 H 26.27975 c -0.582201,0 -0.866357,-0.3827572 -0.866357,-0.8070218 0,-0.4112194 0.284156,-0.7933837 0.866357,-0.7933837 h 4.062726 c 0.600923,0 0.895345,0.3955059 0.895345,0.867504 0,0.1758134 -0.05647,0.3833502 -0.134075,0.5431536 l -3.673484,6.9492227 h 2.941505 c 0.567405,0 0.850956,0.365562 0.850956,0.793384 0,0.443536 -0.283551,0.808208 -0.865149,0.808208"
         id="Fill-4"
         fill="#5a2d87" /><path
         d="m 38.530737,15.112646 h -4.376474 c -0.46262,0 -0.865752,-0.353702 -0.865752,-0.808208 V 5.9587885 c 0,-0.4545057 0.403132,-0.8076148 0.865752,-0.8076148 h 4.376474 c 0.581598,0 0.865451,0.3821643 0.865451,0.7933837 0,0.4242646 -0.283853,0.8070218 -0.865451,0.8070218 H 35.02062 v 2.4332213 h 2.330013 c 0.581597,0 0.866054,0.3821643 0.866054,0.8073183 0,0.4106262 -0.284457,0.7933842 -0.866054,0.7933842 H 35.02062 v 2.725551 h 3.510117 c 0.581598,0 0.865451,0.382165 0.865451,0.807911 0,0.410923 -0.283853,0.793681 -0.865451,0.793681"
         id="Fill-5"
         fill="#5a2d87" /><path
         d="m 46.961784,15.2766 h -0.07881 c -0.511842,0 -0.760063,-0.295888 -0.973255,-0.732902 L 43.030416,8.9840827 v 5.4425053 c 0,0.571616 -0.433329,0.850012 -0.865752,0.850012 -0.433632,0 -0.866659,-0.278396 -0.866659,-0.850012 V 5.9561202 c 0,-0.4548022 0.372331,-0.8924084 0.866659,-0.8924084 h 0.106596 c 0.552608,0 0.76278,0.3104158 1.006169,0.7729265 l 2.82887,5.2376367 V 5.8986028 c 0,-0.5570882 0.431819,-0.834891 0.865149,-0.834891 0.433027,0 0.86696,0.2778028 0.86696,0.834891 v 8.4606842 c 0,0.531591 -0.413399,0.917313 -0.876624,0.917313"
         id="Fill-6"
         fill="#5a2d87" /><path
         d="m 54.448264,6.7515792 h -1.194599 v 7.6744158 c 0,0.572209 -0.432726,0.850012 -0.866055,0.850012 -0.433027,0 -0.866356,-0.277803 -0.866356,-0.850012 V 6.7515792 h -1.1946 c -0.568009,0 -0.866659,-0.3827572 -0.866659,-0.8070218 0,-0.4112194 0.29865,-0.7939767 0.866659,-0.7939767 h 4.12161 c 0.582504,0 0.866659,0.3827573 0.866659,0.7939767 0,0.4242646 -0.284155,0.8070218 -0.866659,0.8070218"
         id="Fill-7"
         fill="#5a2d87" /><path
         d="m 61.573888,10.701598 1.569044,3.357946 c 0.05888,0.131935 0.104181,0.263869 0.104181,0.380979 0,0.484747 -0.462923,0.836077 -0.911653,0.836077 -0.298649,0 -0.582201,-0.146462 -0.746775,-0.498385 l -1.806394,-3.841804 h -0.896252 v 3.489584 c 0,0.572209 -0.433329,0.850605 -0.866055,0.850605 -0.433027,0 -0.866054,-0.278396 -0.866054,-0.934509 V 5.8742914 c 0,-0.3700086 0.403132,-0.7231177 0.866054,-0.7231177 h 2.344508 c 1.658126,0 2.987103,1.2194272 2.987103,2.847109 v 0.047437 c 0,1.2167589 -0.701782,2.2161973 -1.777707,2.6558783 m 0.0456,-2.7033153 c 0,-0.6884294 -0.508219,-1.2467035 -1.210302,-1.2467035 H 58.886039 V 9.33482 h 1.568742 c 0.671283,0 1.164705,-0.6143091 1.164705,-1.2891003 v -0.047437"
         id="Fill-8"
         fill="#5a2d87" /><path
         d="m 68.684111,15.233907 h -0.134679 c -1.643632,0 -2.987103,-1.276945 -2.987103,-2.890099 V 5.9137234 c 0,-0.5722088 0.433027,-0.8500116 0.866356,-0.8500116 0.432726,0 0.865753,0.2778028 0.865753,0.8500116 v 6.4727776 c 0,0.674198 0.567706,1.24611 1.254994,1.24611 h 0.134679 c 0.700876,0 1.268281,-0.557088 1.268281,-1.24611 V 5.9137234 c 0,-0.5722088 0.433933,-0.8500116 0.866356,-0.8500116 0.433632,0 0.866055,0.2778028 0.866055,0.8500116 v 6.4300846 c 0,1.613154 -1.34317,2.890099 -3.000692,2.890099"
         id="Fill-9"
         fill="#5a2d87" /><path
         d="m 81.402853,15.2766 c -0.432424,0 -0.865451,-0.278396 -0.865451,-0.850012 V 8.9840827 L 79.18155,11.857282 c -0.209569,0.484747 -0.5973,0.572209 -0.880851,0.572209 -0.284156,0 -0.672491,-0.08746 -0.881456,-0.572209 l -1.35555,-2.8731993 v 5.4425053 c 0,0.571616 -0.433329,0.850012 -0.866356,0.850012 -0.433028,0 -0.866659,-0.278396 -0.866659,-0.850012 V 5.9137234 c 0,-0.4545057 0.403434,-0.8500116 0.866659,-0.8500116 h 0.223761 c 0.552607,0 0.762176,0.3513302 0.940641,0.732605 l 1.93896,4.0202851 1.937449,-4.0202851 c 0.164575,-0.3812748 0.388336,-0.732605 0.940944,-0.732605 h 0.223761 c 0.463526,0 0.866658,0.3955059 0.866658,0.8500116 v 8.5128646 c 0,0.571616 -0.432725,0.850012 -0.866658,0.850012"
         id="Fill-10"
         fill="#5a2d87" /><path
         d="m 11.397382,1.2898025 c 0,0.3492549 -0.287779,0.6318015 -0.643502,0.6318015 H 1.2653288 c -0.35511859,0 -0.64350147,-0.2825466 -0.64350147,-0.6318015 0,-0.34895835 0.28838288,-0.63180142 0.64350147,-0.63180142 H 10.75388 c 0.355723,0 0.643502,0.28284307 0.643502,0.63180142"
         id="Fill-11"
         fill="#5a2d87" /><path
         d="m 11.397382,19.267533 c 0,0.348662 -0.287779,0.631802 -0.643502,0.631802 H 1.2653288 c -0.35511859,0 -0.64350147,-0.28314 -0.64350147,-0.631802 0,-0.349255 0.28838288,-0.632394 0.64350147,-0.632394 H 10.75388 c 0.355723,0 0.643502,0.283139 0.643502,0.632394"
         id="Fill-12"
         fill="#5a2d87" /><path
         d="M 7.2461782,24.641551 H 6.1131808 v 5.371351 c 0,0.146461 -0.1053881,0.206647 -0.2192314,0.206647 -0.10569,0 -0.2113801,-0.06019 -0.2113801,-0.206647 V 24.641551 H 4.5498738 c -0.1494759,0 -0.2195333,-0.103768 -0.2195333,-0.207536 0,-0.111774 0.070057,-0.215246 0.2195333,-0.215246 h 2.6963044 c 0.149174,0 0.2195334,0.103472 0.2195334,0.215246 0,0.103768 -0.070359,0.207536 -0.2195334,0.207536"
         id="Fill-13"
         fill="#000000" /><path
         d="m 10.934459,30.219549 c -0.10569,0 -0.219835,-0.06019 -0.219835,-0.206647 v -2.707763 c 0,-0.517064 -0.403736,-0.913755 -0.9312804,-0.913755 H 9.704529 c -0.5266385,0 -0.9397356,0.422782 -0.9397356,0.939845 v 2.681673 c 0,0.146461 -0.1141453,0.206647 -0.2192314,0.206647 -0.10569,0 -0.2195333,-0.06019 -0.2195333,-0.206647 V 24.38213 c 0,-0.146165 0.1138433,-0.215541 0.2195333,-0.215541 0.1050861,0 0.2192314,0.06938 0.2192314,0.215541 v 2.009254 C 8.9314817,26.141153 9.3445789,25.968601 9.704529,25.968601 h 0.078815 c 0.746775,0 1.370649,0.586737 1.370649,1.345136 v 2.699165 c 0,0.146461 -0.114146,0.206647 -0.219534,0.206647"
         id="Fill-14"
         fill="#000000" /><path
         d="m 14.867639,27.313737 c 0,-0.508466 -0.439066,-0.922353 -0.930978,-0.922353 h -0.08787 c -0.517881,0 -0.948191,0.413887 -0.948191,0.922353 v 0.569243 h 1.967043 z m 0.211079,1.000031 h -2.178122 v 0.569244 c 0,0.509058 0.421553,0.922946 0.939434,0.922946 h 0.08818 c 0.412493,0 0.737414,-0.249934 0.869376,-0.621129 0.03503,-0.09487 0.105388,-0.146461 0.202019,-0.146461 0.113843,0 0.237048,0.07738 0.237048,0.206647 0,0.0172 -0.0088,0.04329 -0.01782,0.07768 -0.184202,0.543747 -0.693326,0.896856 -1.290626,0.896856 h -0.08818 c -0.746776,0 -1.370045,-0.594741 -1.370045,-1.336537 v -1.569275 c 0,-0.732902 0.623269,-1.345136 1.361288,-1.345136 h 0.08787 c 0.76429,0 1.378802,0.561239 1.378802,1.345136 v 0.784785 c 0,0.112367 -0.105086,0.215246 -0.219231,0.215246 z"
         id="Fill-15"
         fill="#000000" /><path
         d="m 20.346612,30.219549 h -0.08787 c -0.887192,0 -1.616152,-0.689615 -1.616152,-1.569275 v -2.905812 c 0,-0.879067 0.72896,-1.577873 1.616152,-1.577873 h 0.08787 c 0.816833,0 1.492646,0.586736 1.589578,1.353733 v 0.02609 c 0,0.129266 -0.09693,0.215542 -0.211078,0.215542 -0.105086,0 -0.19296,-0.07768 -0.219231,-0.18115 -0.07036,-0.552048 -0.561969,-0.991433 -1.159269,-0.991433 h -0.08787 c -0.658902,0 -1.18554,0.509058 -1.18554,1.155091 v 2.905812 c 0,0.646329 0.526638,1.155684 1.18554,1.155684 h 0.08787 c 0.5973,0 1.088909,-0.439978 1.159269,-0.99173 0.02627,-0.103769 0.114145,-0.181447 0.219231,-0.181447 0.114146,0 0.211078,0.08628 0.211078,0.216135 v 0.0255 c -0.09693,0.776484 -0.772745,1.345135 -1.589578,1.345135"
         id="Fill-16"
         fill="#000000" /><path
         d="m 25.272373,27.313737 c 0,-0.508466 -0.439067,-0.922353 -0.930979,-0.922353 h -0.08757 c -0.518183,0 -0.948492,0.413887 -0.948492,0.922353 v 0.569243 h 1.967043 z m 0.211078,1.000031 H 23.30533 v 0.569244 c 0,0.509058 0.421552,0.922946 0.939735,0.922946 h 0.08787 c 0.412795,0 0.737717,-0.249934 0.869376,-0.621129 0.03533,-0.09487 0.10569,-0.146461 0.201717,-0.146461 0.114448,0 0.23735,0.07738 0.23735,0.206647 0,0.0172 -0.0085,0.04329 -0.01751,0.07768 -0.184505,0.543747 -0.693629,0.896856 -1.290929,0.896856 h -0.08787 c -0.746776,0 -1.370649,-0.594741 -1.370649,-1.336537 v -1.569275 c 0,-0.732902 0.623873,-1.345136 1.361892,-1.345136 h 0.08787 c 0.763988,0 1.3785,0.561239 1.3785,1.345136 v 0.784785 c 0,0.112367 -0.105086,0.215246 -0.219231,0.215246 z"
         id="Fill-17"
         fill="#000000" /><path
         d="m 29.504806,30.219549 c -0.105388,0 -0.219231,-0.06019 -0.219231,-0.206647 v -2.707763 c 0,-0.517064 -0.404038,-0.913755 -0.930978,-0.913755 h -0.07942 c -0.526638,0 -0.939735,0.422782 -0.939735,0.939845 v 2.681673 c 0,0.146461 -0.113844,0.206647 -0.219232,0.206647 -0.10569,0 -0.219835,-0.06019 -0.219835,-0.206647 v -3.828759 c 0,-0.146165 0.114145,-0.215542 0.219835,-0.215542 0.105388,0 0.219232,0.06938 0.219232,0.215542 v 0.207241 c 0.16699,-0.250231 0.579785,-0.422783 0.939735,-0.422783 h 0.07942 c 0.746171,0 1.370347,0.586737 1.370347,1.345136 v 2.699165 c 0,0.146461 -0.114447,0.206647 -0.220138,0.206647"
         id="Fill-18"
         fill="#000000" /><path
         d="m 32.428495,30.219549 c -0.667659,0 -1.089211,-0.413591 -1.089211,-1.068815 v -2.733853 h -0.316466 c -0.149174,0 -0.219232,-0.103176 -0.219232,-0.206055 0,-0.112366 0.07006,-0.216134 0.219232,-0.216134 h 0.316466 V 24.38213 c 0,-0.146165 0.105388,-0.215541 0.219533,-0.215541 0.105086,0 0.210776,0.06938 0.210776,0.215541 v 1.612562 h 0.606057 c 0.149476,0 0.228291,0.103768 0.228291,0.216134 0,0.102879 -0.07881,0.206055 -0.228291,0.206055 h -0.606057 v 2.733853 c 0,0.370602 0.245805,0.655224 0.658902,0.655224 0.149174,0 0.219534,0.103768 0.219534,0.206944 0,0.112366 -0.07036,0.206647 -0.219534,0.206647"
         id="Fill-19"
         fill="#000000" /><path
         d="m 36.019542,27.313737 c 0,-0.508466 -0.439067,-0.922353 -0.930979,-0.922353 h -0.08757 c -0.518183,0 -0.94819,0.413887 -0.94819,0.922353 v 0.569243 h 1.966741 z m 0.211078,1.000031 h -2.177819 v 0.569244 c 0,0.509058 0.421552,0.922946 0.939433,0.922946 h 0.08787 c 0.412493,0 0.737717,-0.249934 0.869678,-0.621129 0.03442,-0.09487 0.105086,-0.146461 0.201415,-0.146461 0.114448,0 0.23735,0.07738 0.23735,0.206647 0,0.0172 -0.0085,0.04329 -0.01751,0.07768 -0.183901,0.543747 -0.693931,0.896856 -1.290929,0.896856 h -0.08787 c -0.746775,0 -1.370045,-0.594741 -1.370045,-1.336537 v -1.569275 c 0,-0.732902 0.62327,-1.345136 1.361288,-1.345136 h 0.08787 c 0.76429,0 1.3785,0.561239 1.3785,1.345136 v 0.784785 c 0,0.112367 -0.105388,0.215246 -0.219231,0.215246 z"
         id="Fill-20"
         fill="#000000" /><path
         d="m 39.646221,26.718995 c -0.07006,0 -0.13166,-0.03469 -0.175144,-0.09487 -0.141021,-0.198049 -0.316768,-0.232737 -0.562573,-0.232737 -0.360554,0 -0.650145,0.155059 -0.650145,0.569243 v 3.04338 c 0,0.146758 -0.105086,0.215542 -0.219231,0.215542 -0.10569,0 -0.220138,-0.06878 -0.220138,-0.215542 v -3.819864 c 0,-0.146165 0.114448,-0.215542 0.228895,-0.215542 0.105388,0 0.210474,0.06938 0.210474,0.207241 0.132264,-0.12897 0.413097,-0.207241 0.650145,-0.207241 0.307105,0 0.693629,0.09487 0.913464,0.40529 0.03473,0.04299 0.05254,0.08628 0.05254,0.129266 0,0.129562 -0.113843,0.215838 -0.22829,0.215838"
         id="Fill-21"
         fill="#000000" /><path
         d="m 44.009408,24.589371 c -0.377162,0 -0.640784,0.241336 -0.640784,0.65552 v 0.749801 h 0.588241 c 0.149476,0 0.228291,0.103768 0.228291,0.20724 0,0.103175 -0.07881,0.214949 -0.228291,0.214949 h -0.588241 v 3.596021 c 0,0.146461 -0.105388,0.206647 -0.210776,0.206647 -0.105388,0 -0.219533,-0.06019 -0.219533,-0.206647 v -3.596021 h -0.333981 c -0.148872,0 -0.219533,-0.111774 -0.219533,-0.214949 0,-0.103472 0.07066,-0.20724 0.219533,-0.20724 h 0.333981 v -0.749801 c 0,-0.715706 0.447824,-1.078302 1.071093,-1.078302 0.149778,0 0.228895,0.103768 0.228895,0.20724 0,0.103175 -0.07912,0.215542 -0.228895,0.215542"
         id="Fill-22"
         fill="#000000" /><path
         d="m 47.293651,27.313737 c 0,-0.508466 -0.421552,-0.922353 -0.939433,-0.922353 h -0.08787 c -0.518183,0 -0.939736,0.413887 -0.939736,0.922353 v 1.569275 c 0,0.509058 0.421553,0.922946 0.939736,0.922946 h 0.08787 c 0.517881,0 0.939433,-0.413888 0.939433,-0.922946 z m -0.939433,2.905812 h -0.08787 c -0.746474,0 -1.370045,-0.594741 -1.370045,-1.336537 v -1.569275 c 0,-0.758399 0.623571,-1.345136 1.370045,-1.345136 h 0.08787 c 0.746171,0 1.370347,0.586737 1.370347,1.345136 v 1.569275 c 0,0.741796 -0.624176,1.336537 -1.370347,1.336537 z"
         id="Fill-23"
         fill="#000000" /><path
         d="m 51.0076,26.718995 c -0.06976,0 -0.131358,-0.03469 -0.175446,-0.09487 -0.140416,-0.198049 -0.315862,-0.232737 -0.561969,-0.232737 -0.360252,0 -0.650145,0.155059 -0.650145,0.569243 v 3.04338 c 0,0.146758 -0.105086,0.215542 -0.219231,0.215542 -0.10569,0 -0.220137,-0.06878 -0.220137,-0.215542 v -3.819864 c 0,-0.146165 0.114447,-0.215542 0.228592,-0.215542 0.10569,0 0.210776,0.06938 0.210776,0.207241 0.131962,-0.12897 0.413098,-0.207241 0.650145,-0.207241 0.307407,0 0.693931,0.09487 0.913162,0.40529 0.03533,0.04299 0.05315,0.08628 0.05315,0.129266 0,0.129562 -0.114145,0.215838 -0.228894,0.215838"
         id="Fill-24"
         fill="#000000" /><g
         id="Group-37"
         transform="translate(5.210526,33.142857)"
         fill="#000000"><path
           d="m 4.2557199,6.2195489 c -0.1053881,0 -0.2110782,-0.060186 -0.2110782,-0.2066474 V 1.0032586 L 2.5166655,4.2876773 c -0.044088,0.1037685 -0.1404168,0.1559492 -0.2370477,0.1559492 -0.079117,0 -0.1932619,-0.052181 -0.2373497,-0.1559492 L 0.51429181,1.0032586 v 5.0096429 c 0,0.1464617 -0.10569006,0.2066474 -0.21077617,0.2066474 -0.11414526,0 -0.21983532,-0.060186 -0.21983532,-0.2066474 V 0.38242695 c 0,-0.1120699 0.10569006,-0.21524536 0.21983532,-0.21524536 h 0.15793114 c 0.0613002,0 0.1669903,0.0687836 0.19326183,0.12926581 L 2.2796178,3.8396943 3.904225,0.2964474 C 3.9304965,0.23596523 4.0358846,0.16718159 4.0974868,0.16718159 h 0.1582331 c 0.1138433,0 0.2195333,0.10317546 0.2195333,0.21524536 V 6.0129015 c 0,0.1464617 -0.10569,0.2066474 -0.2195333,0.2066474"
           id="Fill-25" /><path
           d="m 8.2764717,3.3137366 c 0,-0.5084653 -0.4218543,-0.922353 -0.9394336,-0.922353 h -0.087874 c -0.5184852,0 -0.9400376,0.4138877 -0.9400376,0.922353 v 1.569275 c 0,0.5084653 0.4215524,0.9226495 0.9400376,0.9226495 h 0.087874 c 0.5175793,0 0.9394336,-0.4141842 0.9394336,-0.9226495 z M 7.3370381,6.2195489 h -0.087874 c -0.7467758,0 -1.3700451,-0.5947413 -1.3700451,-1.3365373 v -1.569275 c 0,-0.7583989 0.6232693,-1.3445423 1.3700451,-1.3445423 h 0.087874 c 0.7458698,0 1.3700451,0.5861434 1.3700451,1.3445423 v 1.569275 c 0,0.741796 -0.6241753,1.3365373 -1.3700451,1.3365373 z"
           id="Fill-26" /><path
           d="m 11.270218,6.2195489 c -0.711143,0 -1.088607,-0.47437 -1.088607,-1.0694077 V 0.38242695 c 0,-0.14646172 0.113843,-0.21524536 0.219231,-0.21524536 0.10569,0 0.219533,0.0687836 0.219533,0.21524536 V 5.1501412 c 0,0.3711944 0.254562,0.6555199 0.649843,0.6555199 0.149174,0 0.228291,0.103472 0.228291,0.2072404 0,0.1117734 -0.07912,0.2066474 -0.228291,0.2066474"
           id="Fill-27" /><path
           d="m 14.92347,3.3137366 c 0,-0.5084653 -0.439066,-0.922353 -0.93128,-0.922353 h -0.08757 c -0.518183,0 -0.948795,0.4138877 -0.948795,0.922353 v 0.5692439 h 1.967647 z m 0.210475,1.0000311 h -2.178122 v 0.5692439 c 0,0.5084653 0.421855,0.9226495 0.940038,0.9226495 h 0.08787 c 0.412795,0 0.737716,-0.2502301 0.869376,-0.6208316 0.03503,-0.094874 0.10569,-0.1464617 0.201717,-0.1464617 0.114447,0 0.237048,0.077382 0.237048,0.2066474 0,0.017196 -0.0082,0.043286 -0.01721,0.077678 -0.184504,0.5431536 -0.69393,0.8968557 -1.290928,0.8968557 h -0.08787 c -0.746474,0 -1.370045,-0.5947413 -1.370045,-1.3365373 v -1.569275 c 0,-0.7323086 0.623571,-1.3445423 1.361288,-1.3445423 h 0.08757 c 0.763988,0 1.378802,0.560053 1.378802,1.3445423 v 0.7847857 c 0,0.1123664 -0.105086,0.2152454 -0.219533,0.2152454 z"
           id="Fill-28" /><path
           d="m 18.083905,6.2195489 h -0.08787 c -0.746473,0 -1.370045,-0.5947413 -1.370045,-1.3365373 v -1.569275 c 0,-0.7583989 0.623572,-1.3445423 1.370045,-1.3445423 h 0.08787 c 0.746776,0 1.370649,0.5861434 1.370649,1.3445423 0,0.1464617 -0.105992,0.2155418 -0.211078,0.2155418 -0.105388,0 -0.219835,-0.06908 -0.219835,-0.2155418 0,-0.5084653 -0.421553,-0.922353 -0.939736,-0.922353 h -0.08787 c -0.517881,0 -0.939433,0.4138877 -0.939433,0.922353 v 1.569275 c 0,0.5084653 0.421552,0.9226495 0.939433,0.9226495 h 0.08787 c 0.518183,0 0.939736,-0.4141842 0.939736,-0.9226495 0,-0.1464617 0.114447,-0.2241398 0.219835,-0.2241398 0.105086,0 0.211078,0.077678 0.211078,0.2241398 0,0.741796 -0.623873,1.3365373 -1.370649,1.3365373"
           id="Fill-29" /><path
           d="m 23.23856,6.2195489 c -0.105388,0 -0.219835,-0.060186 -0.219835,-0.2066474 V 5.8056611 c -0.166386,0.2499337 -0.579182,0.4138878 -0.939434,0.4138878 h -0.07912 c -0.746172,0 -1.370045,-0.5692439 -1.370045,-1.3365373 V 2.1847362 c 0,-0.1467582 0.114145,-0.2155419 0.219533,-0.2155419 0.105388,0 0.219835,0.068784 0.219835,0.2155419 V 4.891906 c 0,0.5170633 0.403736,0.9137551 0.930677,0.9137551 h 0.07912 c 0.526639,0 0.939434,-0.4227822 0.939434,-0.9398454 V 2.1847362 c 0,-0.1467582 0.114447,-0.2155419 0.219835,-0.2155419 0.105086,0 0.219534,0.068784 0.219534,0.2155419 v 3.8281653 c 0,0.1464617 -0.114448,0.2066474 -0.219534,0.2066474"
           id="Fill-30" /><path
           d="m 26.267637,6.2195489 c -0.711445,0 -1.088909,-0.47437 -1.088909,-1.0694077 V 0.38242695 c 0,-0.14646172 0.114145,-0.21524536 0.219231,-0.21524536 0.105388,0 0.219835,0.0687836 0.219835,0.21524536 V 5.1501412 c 0,0.3711944 0.254261,0.6555199 0.649843,0.6555199 0.149174,0 0.227989,0.103472 0.227989,0.2072404 0,0.1117734 -0.07882,0.2066474 -0.227989,0.2066474"
           id="Fill-31" /><path
           d="M 29.762355,3.9692565 C 29.25323,4.2019943 27.803767,4.1071203 27.803767,4.9431973 V 4.98678 c 0,0.5170632 0.386523,0.8188811 0.939433,0.8188811 h 0.08848 c 0.517882,0 0.930677,-0.4141842 0.930677,-0.9226495 z M 30.5351,6.2195489 H 30.49131 C 30.139819,6.1593632 29.964072,6.004007 29.867441,5.7706763 29.612879,6.0555948 29.244171,6.2195489 28.831678,6.2195489 H 28.7432 c -0.737414,0 -1.370045,-0.4313802 -1.370045,-1.2413668 v -0.043583 c 0,-1.1550907 1.387862,-1.0777091 2.134336,-1.3279393 0.237349,-0.077382 0.254864,-0.1289693 0.254864,-0.3270187 0,-0.5001638 -0.395281,-0.8796598 -0.887193,-0.8796598 h -0.0613 c -0.351193,0 -0.693931,0.1292658 -0.869376,0.5170633 -0.04439,0.086276 -0.10569,0.1292658 -0.193262,0.1292658 -0.114447,0 -0.23735,-0.085683 -0.23735,-0.2155419 0,-0.025497 0.0091,-0.060186 0.02627,-0.094874 0.254562,-0.5861433 0.808076,-0.7667004 1.273716,-0.7667004 h 0.0613 c 0.693931,0 1.317804,0.560053 1.317804,1.2757587 v 1.7332291 c 0,0.6635249 0.08727,0.7758913 0.368405,0.8185846 0.122903,0.017492 0.184807,0.086276 0.184807,0.2072403 0,0.1292658 -0.07942,0.2155419 -0.211078,0.2155419 z"
           id="Fill-32" /><path
           d="m 33.739924,2.7189953 c -0.07036,0 -0.131659,-0.034688 -0.175747,-0.094874 -0.141021,-0.1986424 -0.316164,-0.2327377 -0.561969,-0.2327377 -0.360252,0 -0.650145,0.1550596 -0.650145,0.5692439 V 6.004007 c 0,0.1467582 -0.105388,0.2155419 -0.219231,0.2155419 -0.10569,0 -0.219836,-0.068784 -0.219836,-0.2155419 V 2.1847362 c 0,-0.1467582 0.114146,-0.2155419 0.227989,-0.2155419 0.10569,0 0.211078,0.068784 0.211078,0.2066474 0.13166,-0.1295622 0.413097,-0.2066474 0.650145,-0.2066474 0.307105,0 0.694233,0.094281 0.913464,0.4046969 0.03473,0.04299 0.05254,0.086276 0.05254,0.1292658 0,0.1295623 -0.114447,0.2158383 -0.228291,0.2158383"
           id="Fill-33" /><path
           d="m 40.039354,6.1762626 h -2.493983 c -0.114448,0 -0.219534,-0.1031754 -0.219534,-0.2155418 V 0.38242695 c 0,-0.14646172 0.105086,-0.21524536 0.219534,-0.21524536 0.113843,0 0.219231,0.0687836 0.219231,0.21524536 V 5.7540734 h 2.274752 c 0.149476,0 0.219533,0.102879 0.219533,0.2066474 0,0.1037684 -0.07006,0.2155418 -0.219533,0.2155418"
           id="Fill-34" /><path
           d="m 41.610512,6.2195489 c -0.105388,0 -0.219533,-0.060186 -0.219533,-0.2066474 V 2.1847362 c 0,-0.1467582 0.114145,-0.2155419 0.219533,-0.2155419 0.105086,0 0.219232,0.068784 0.219232,0.2155419 v 3.8281653 c 0,0.1464617 -0.114146,0.2066474 -0.219232,0.2066474 z m 0,-5.33725464 c -0.105388,0 -0.219533,-0.0776781 -0.219533,-0.21524536 V 0.38242695 c 0,-0.14646172 0.114145,-0.21524536 0.219533,-0.21524536 0.105086,0 0.219232,0.0687836 0.219232,0.21524536 V 0.6670489 c 0,0.13756728 -0.114146,0.21524536 -0.219232,0.21524536 z"
           id="Fill-35" /><path
           d="m 44.73622,0.58937083 c -0.377464,0 -0.640784,0.2413357 -0.640784,0.65551997 v 0.7498009 h 0.588241 c 0.149174,0 0.228291,0.1031755 0.228291,0.2066474 0,0.1037684 -0.07912,0.2155419 -0.228291,0.2155419 h -0.588241 v 3.5960205 c 0,0.1464617 -0.105388,0.2066474 -0.211078,0.2066474 -0.105388,0 -0.219533,-0.060186 -0.219533,-0.2066474 V 2.416881 h -0.333679 c -0.149174,0 -0.219835,-0.1117735 -0.219835,-0.2155419 0,-0.1034719 0.07066,-0.2066474 0.219835,-0.2066474 h 0.333679 V 1.2448908 c 0,-0.71629862 0.447824,-1.07770921 1.071395,-1.07770921 0.149174,0 0.228593,0.10317546 0.228593,0.2066474 0,0.10317546 -0.07942,0.21554184 -0.228593,0.21554184"
           id="Fill-36" /><path
           d="m 48.196211,3.3137366 c 0,-0.5084653 -0.438765,-0.922353 -0.931281,-0.922353 h -0.08757 c -0.518485,0 -0.94819,0.4138877 -0.94819,0.922353 v 0.5692439 h 1.967043 z m 0.211078,1.0000311 h -2.178121 v 0.5692439 c 0,0.5084653 0.420948,0.9226495 0.939433,0.9226495 h 0.08757 c 0.413097,0 0.738019,-0.2502301 0.86998,-0.6208316 0.03503,-0.094874 0.105086,-0.1464617 0.201717,-0.1464617 0.114146,0 0.237048,0.077382 0.237048,0.2066474 0,0.017196 -0.0088,0.043286 -0.01782,0.077678 -0.183599,0.5431536 -0.693327,0.8968557 -1.290929,0.8968557 h -0.08757 c -0.746775,0 -1.369743,-0.5947413 -1.369743,-1.3365373 v -1.569275 c 0,-0.7323086 0.622968,-1.3445423 1.360986,-1.3445423 h 0.08757 c 0.763988,0 1.379104,0.560053 1.379104,1.3445423 v 0.7847857 c 0,0.1123664 -0.105086,0.2152454 -0.219231,0.2152454 z"
           id="Fill-37" /><path
           d="m 54.021545,6.2195489 h -0.08757 c -0.878133,0 -1.616152,-0.5692439 -1.616152,-1.569275 0,-0.1464618 0.104784,-0.2152454 0.219533,-0.2152454 0.113844,0 0.220138,0.068784 0.220138,0.2152454 0,0.7243035 0.517881,1.1464928 1.176481,1.1464928 h 0.08757 c 0.685173,0 1.212416,-0.3960989 1.212416,-1.0602168 0,-1.7418271 -2.819509,-1.2327688 -2.819509,-3.0949673 0,-0.8971521 0.702688,-1.47440101 1.519521,-1.47440101 h 0.08757 c 0.843104,0 1.536733,0.48237492 1.536733,1.33594431 0,0.1384567 -0.105388,0.2072404 -0.210172,0.2072404 -0.105388,0 -0.219231,-0.068784 -0.219231,-0.2161348 0,-0.5858469 -0.4747,-0.89626272 -1.10733,-0.89626272 h -0.08757 c -0.588241,0 -1.089212,0.39669185 -1.089212,1.05221182 0,1.4569086 2.827662,1.0777091 2.827662,3.0863693 0,0.9051571 -0.7199,1.482999 -1.650878,1.482999"
           id="Fill-38" /><path
           d="m 58.227103,6.2195489 h -0.08727 c -0.747379,0 -1.370347,-0.5947413 -1.370347,-1.3365373 v -1.569275 c 0,-0.7583989 0.622968,-1.3445423 1.370347,-1.3445423 h 0.08727 c 0.747078,0 1.370347,0.5861434 1.370347,1.3445423 0,0.1464617 -0.10569,0.2155418 -0.210474,0.2155418 -0.10569,0 -0.220137,-0.06908 -0.220137,-0.2155418 0,-0.5084653 -0.420647,-0.922353 -0.939736,-0.922353 h -0.08727 c -0.517881,0 -0.939735,0.4138877 -0.939735,0.922353 v 1.569275 c 0,0.5084653 0.421854,0.9226495 0.939735,0.9226495 h 0.08727 c 0.519089,0 0.939736,-0.4141842 0.939736,-0.9226495 0,-0.1464617 0.114447,-0.2241398 0.220137,-0.2241398 0.104784,0 0.210474,0.077678 0.210474,0.2241398 0,0.741796 -0.623269,1.3365373 -1.370347,1.3365373"
           id="Fill-39" /><path
           d="m 61.194578,6.2195489 c -0.105086,0 -0.219231,-0.060186 -0.219231,-0.2066474 V 2.1847362 c 0,-0.1467582 0.114145,-0.2155419 0.219231,-0.2155419 0.106294,0 0.220137,0.068784 0.220137,0.2155419 v 3.8281653 c 0,0.1464617 -0.113843,0.2066474 -0.220137,0.2066474 z m 0,-5.33725464 c -0.105086,0 -0.219231,-0.0776781 -0.219231,-0.21524536 V 0.38242695 c 0,-0.14646172 0.114145,-0.21524536 0.219231,-0.21524536 0.106294,0 0.220137,0.0687836 0.220137,0.21524536 V 0.6670489 c 0,0.13756728 -0.113843,0.21524536 -0.220137,0.21524536 z"
           id="Fill-40" /><path
           d="m 65.25217,3.3137366 c 0,-0.5084653 -0.43967,-0.922353 -0.931582,-0.922353 h -0.08727 c -0.518183,0 -0.948493,0.4138877 -0.948493,0.922353 v 0.5692439 h 1.967345 z m 0.210475,1.0000311 h -2.17782 v 0.5692439 c 0,0.5084653 0.421553,0.9226495 0.939434,0.9226495 h 0.08727 c 0.413097,0 0.73832,-0.2502301 0.870282,-0.6208316 0.03473,-0.094874 0.105388,-0.1464617 0.201415,-0.1464617 0.114145,0 0.23735,0.077382 0.23735,0.2066474 0,0.017196 -0.0082,0.043286 -0.01721,0.077678 -0.184504,0.5431536 -0.694232,0.8968557 -1.291834,0.8968557 h -0.08727 c -0.746172,0 -1.370045,-0.5947413 -1.370045,-1.3365373 v -1.569275 c 0,-0.7323086 0.623873,-1.3445423 1.360986,-1.3445423 h 0.08818 c 0.76429,0 1.378802,0.560053 1.378802,1.3445423 v 0.7847857 c 0,0.1123664 -0.105388,0.2152454 -0.219533,0.2152454 z"
           id="Fill-41" /><path
           d="m 69.571874,6.2195489 c -0.105086,0 -0.219231,-0.060186 -0.219231,-0.2066474 V 3.3051387 c 0,-0.5170633 -0.403736,-0.9137551 -0.930979,-0.9137551 h -0.07912 c -0.526941,0 -0.939736,0.4227822 -0.939736,0.9398454 v 2.6816725 c 0,0.1464617 -0.114145,0.2066474 -0.219533,0.2066474 -0.10569,0 -0.219836,-0.060186 -0.219836,-0.2066474 V 2.1847362 c 0,-0.1467582 0.114146,-0.2155419 0.219836,-0.2155419 0.105388,0 0.219533,0.068784 0.219533,0.2155419 V 2.3913836 C 67.5695,2.1411534 67.982597,1.9691943 68.342548,1.9691943 h 0.07912 c 0.746172,0 1.370347,0.5861434 1.370347,1.3445423 v 2.6991649 c 0,0.1464617 -0.114749,0.2066474 -0.220137,0.2066474"
           id="Fill-42" /><path
           d="m 72.583135,6.2195489 h -0.08787 c -0.746776,0 -1.369743,-0.5947413 -1.369743,-1.3365373 v -1.569275 c 0,-0.7583989 0.622967,-1.3445423 1.369743,-1.3445423 h 0.08787 c 0.747078,0 1.370045,0.5861434 1.370045,1.3445423 0,0.1464617 -0.105086,0.2155418 -0.210474,0.2155418 -0.105086,0 -0.219836,-0.06908 -0.219836,-0.2155418 0,-0.5084653 -0.42125,-0.922353 -0.939735,-0.922353 h -0.08787 c -0.517881,0 -0.939132,0.4138877 -0.939132,0.922353 v 1.569275 c 0,0.5084653 0.421251,0.9226495 0.939132,0.9226495 h 0.08787 c 0.518485,0 0.939735,-0.4141842 0.939735,-0.9226495 0,-0.1464617 0.11475,-0.2241398 0.219836,-0.2241398 0.105388,0 0.210474,0.077678 0.210474,0.2241398 0,0.741796 -0.622967,1.3365373 -1.370045,1.3365373"
           id="Fill-43" /><path
           d="m 77.562043,3.3137366 c 0,-0.5084653 -0.439067,-0.922353 -0.931281,-0.922353 h -0.08818 c -0.517881,0 -0.94819,0.4138877 -0.94819,0.922353 v 0.5692439 h 1.967647 z m 0.21138,1.0000311 h -2.179027 v 0.5692439 c 0,0.5084653 0.421552,0.9226495 0.939433,0.9226495 h 0.08848 c 0.412493,0 0.737415,-0.2502301 0.869074,-0.6208316 0.03533,-0.094874 0.105388,-0.1464617 0.202321,-0.1464617 0.114145,0 0.237048,0.077382 0.237048,0.2066474 0,0.017196 -0.0088,0.043286 -0.01782,0.077678 -0.184202,0.5431536 -0.693326,0.8968557 -1.290626,0.8968557 h -0.08848 c -0.746172,0 -1.369139,-0.5947413 -1.369139,-1.3365373 v -1.569275 c 0,-0.7323086 0.622967,-1.3445423 1.360986,-1.3445423 h 0.08787 c 0.763384,0 1.378802,0.560053 1.378802,1.3445423 v 0.7847857 c 0,0.1123664 -0.105086,0.2152454 -0.218929,0.2152454 z"
           id="Fill-44" /><path
           d="m 80.58206,6.2195489 h -0.157931 c -0.544756,0 -1.124542,-0.3276118 -1.387559,-0.8449715 C 79.02777,5.3398894 79.01,5.3057934 79.01,5.2797034 c 0,-0.1295623 0.122903,-0.2158384 0.237048,-0.2158384 0.09693,0 0.158233,0.043286 0.193564,0.1295623 0.175747,0.3706015 0.606661,0.6122337 0.983521,0.6122337 h 0.157931 c 0.597602,0 0.992883,-0.3794959 0.992883,-0.8022781 0,-1.396723 -2.380442,-0.4046969 -2.380442,-2.0000622 v -0.042693 c 0,-0.5778419 0.579785,-0.9914332 1.335016,-0.9914332 h 0.01782 c 0.738018,0 1.238385,0.3614106 1.238385,0.560053 0,0.1123664 -0.09663,0.2152454 -0.210776,0.2152454 -0.05254,0 -0.10569,-0.016603 -0.149778,-0.060186 C 81.188419,2.4776596 80.934159,2.3913836 80.547334,2.3913836 h -0.04348 c -0.351797,0 -0.878738,0.172552 -0.878738,0.5772489 v 0.034688 c 0,1.0952015 2.388596,0.2502301 2.388596,2.0000622 0,0.8624638 -0.816833,1.2161659 -1.431648,1.2161659"
           id="Fill-45" /></g></g><g
       id="g3"
       transform="matrix(0.48358035,0,0,0.48358035,0.56666967,0.45183667)"><path
         d="m 95.88,25.55 h -1.71 v 11.1 h 1.71 z M 87.65,32 a 3.94,3.94 0 0 1 0.13,-0.65 1.84,1.84 0 0 1 1.63,-1.35 1.59,1.59 0 0 1 0.85,0.26 1.89,1.89 0 0 1 0.79,1.74 z m 5.17,1 a 5.34,5.34 0 0 0 -0.4,-2.22 3.28,3.28 0 0 0 -3,-1.71 3.64,3.64 0 0 0 -2.73,1.22 4.38,4.38 0 0 0 -0.89,2.71 3.61,3.61 0 0 0 1.51,3.12 4.22,4.22 0 0 0 2.43,0.69 5.79,5.79 0 0 0 2,-0.35 7,7 0 0 0 0.82,-0.38 v -1.42 a 6.08,6.08 0 0 1 -0.65,0.58 2.85,2.85 0 0 1 -1.78,0.6 2.51,2.51 0 0 1 -1.73,-0.62 2.92,2.92 0 0 1 -0.75,-1.51 c 0,-0.26 0,-0.44 -0.06,-0.72 z m -12.75,1.8 v 1.64 a 4.92,4.92 0 0 0 2,0.42 2.93,2.93 0 0 0 2.07,-0.68 2.32,2.32 0 0 0 0.79,-1.8 2,2 0 0 0 -0.69,-1.52 5.56,5.56 0 0 0 -1.53,-0.74 2.64,2.64 0 0 1 -0.85,-0.46 0.8,0.8 0 0 1 -0.27,-0.62 1,1 0 0 1 0.22,-0.59 1.55,1.55 0 0 1 1.01,-0.45 2.11,2.11 0 0 1 1.31,0.5 c 0.13,0.09 0.24,0.17 0.36,0.27 v -1.42 a 4.74,4.74 0 0 0 -1.62,-0.3 5.3,5.3 0 0 0 -0.92,0.08 2.86,2.86 0 0 0 -0.92,0.36 2.37,2.37 0 0 0 -1,1.92 2,2 0 0 0 0.49,1.32 3.65,3.65 0 0 0 1.34,0.75 c 0.61,0.2 1.52,0.46 1.52,1.27 a 0.9,0.9 0 0 1 -0.18,0.53 1.24,1.24 0 0 1 -1.09,0.52 2.72,2.72 0 0 1 -1.79,-0.75 z m -3.19,0.61 a 3.87,3.87 0 0 1 -1.41,0.28 2.38,2.38 0 0 1 -1.08,-0.21 2.21,2.21 0 0 1 -1.18,-1.86 4.36,4.36 0 0 1 -0.06,-0.78 3.12,3.12 0 0 1 1.11,-2.55 2,2 0 0 1 1,-0.31 1.49,1.49 0 0 1 1.47,1 2.1,2.1 0 0 1 0.12,0.75 z m 1.68,-6.24 -0.92,0.55 a 5.6,5.6 0 0 0 -2.43,-0.65 3.75,3.75 0 0 0 -3.41,2 4.46,4.46 0 0 0 -0.42,1.9 4.31,4.31 0 0 0 0.5,2 4.06,4.06 0 0 0 0.65,0.82 3.85,3.85 0 0 0 2.52,0.82 c 0.26,0 0.5,0 0.75,0 h 2.76 z M 65.11,27.68 a 2.3,2.3 0 0 1 1.17,-0.29 2.25,2.25 0 0 1 2,1.07 1.3,1.3 0 0 1 0.19,0.67 1.71,1.71 0 0 1 -0.47,1.08 c -0.37,0.42 -0.89,0.82 -0.89,1.38 a 0.92,0.92 0 0 0 0.13,0.49 2.29,2.29 0 0 0 0.36,0.44 c 0.46,0.43 1.06,0.79 1.06,1.49 a 1.58,1.58 0 0 1 -0.45,1.11 2.15,2.15 0 0 1 -1.67,0.62 4.45,4.45 0 0 1 -1.41,-0.24 z m -1.76,9 h 3.18 a 5.76,5.76 0 0 0 1.39,-0.15 3.17,3.17 0 0 0 2.17,-1.65 2.53,2.53 0 0 0 0.23,-1.08 2.28,2.28 0 0 0 -0.66,-1.7 L 69.27,31.74 68.71,31.22 A 3.32,3.32 0 0 0 69.92,29 2.26,2.26 0 0 0 69.39,27.59 2.94,2.94 0 0 0 67,26.48 c -0.2,0 -0.41,0 -0.61,0 h -3.04 z m -8.72,-7.4 h -1.12 v 1.12 h 1.12 v 6.25 h 1.71 V 30.4 h 1.31 v -1.15 h -1.31 v -1.48 c 0,-0.12 -0.07,-0.88 0.55,-1.1 a 1.08,1.08 0 0 1 0.4,-0.07 0.84,0.84 0 0 1 0.35,0.07 V 25.55 A 4.72,4.72 0 0 0 55.78,25.79 2.41,2.41 0 0 0 54.64,28 c 0,0.17 0,0.35 0,0.5 z m -3.38,3.66 a 3.29,3.29 0 0 1 -1,2.69 1.78,1.78 0 0 1 -2.1,-0.16 2.61,2.61 0 0 1 -0.82,-1.67 6.29,6.29 0 0 1 -0.06,-0.85 3,3 0 0 1 1,-2.56 1.66,1.66 0 0 1 1,-0.33 1.72,1.72 0 0 1 1,0.27 c 1.09,0.69 1,2.4 1,2.61 m 1.77,0 a 4.93,4.93 0 0 0 -0.14,-1.11 3.37,3.37 0 0 0 -2.42,-2.59 4.23,4.23 0 0 0 -1.17,-0.16 3.65,3.65 0 0 0 -3.4,2 4.37,4.37 0 0 0 -0.45,1.92 3.61,3.61 0 0 0 3.77,3.88 3.48,3.48 0 0 0 3.65,-2.75 5.53,5.53 0 0 0 0.12,-1.21"
         id="path1" /><path
         d="M 112.54,14.63 H 111 l -2.33,6.54 -2.32,-6.54 h -1.89 l 2.79,7.37 a 1.11,1.11 0 0 1 0.29,0.14 0.79,0.79 0 0 1 0.3,0.65 0.9,0.9 0 0 1 -0.46,0.79 2.82,2.82 0 0 1 -1.31,0.11 V 25 a 4.63,4.63 0 0 0 1.73,-0.22 2.3,2.3 0 0 0 1.35,-1.36 12.37,12.37 0 0 0 0.53,-1.31 z m -8.68,0 h -1.29 V 12.1 c 0,-0.18 0,-0.45 -0.23,-0.45 a 0.43,0.43 0 0 0 -0.2,0.06 c -0.08,0.06 -0.09,0.17 -0.11,0.36 a 3.44,3.44 0 0 1 -0.72,1.81 2,2 0 0 1 -1.59,0.76 v 1.14 h 1.12 V 22 h 1.73 v -6.22 h 1.29 z m -7.3,-1.84 a 1,1 0 1 0 1,-1 1,1 0 0 0 -1,1 m 1.87,1.84 H 96.72 V 22 h 1.71 z m -8.14,5.54 v 1.64 a 4.87,4.87 0 0 0 2,0.42 2.9,2.9 0 0 0 2.07,-0.68 2.3,2.3 0 0 0 0.79,-1.8 A 2,2 0 0 0 94.46,18.23 5.86,5.86 0 0 0 92.93,17.49 2.64,2.64 0 0 1 92,17 a 0.79,0.79 0 0 1 -0.27,-0.61 1,1 0 0 1 0.22,-0.6 1.58,1.58 0 0 1 1.05,-0.38 2.11,2.11 0 0 1 1.31,0.5 c 0.12,0.09 0.24,0.17 0.36,0.27 v -1.45 a 4.74,4.74 0 0 0 -1.62,-0.3 6.57,6.57 0 0 0 -0.92,0.08 2.82,2.82 0 0 0 -0.92,0.37 2.34,2.34 0 0 0 -1,1.91 2,2 0 0 0 0.49,1.32 3.65,3.65 0 0 0 1.34,0.75 c 0.61,0.2 1.51,0.46 1.51,1.27 a 0.86,0.86 0 0 1 -0.17,0.53 1.24,1.24 0 0 1 -1.09,0.52 2.72,2.72 0 0 1 -1.79,-0.75 z M 84.6,14.63 V 22 h 1.71 v -6.26 a 2.21,2.21 0 0 1 1.24,-0.22 0.68,0.68 0 0 0 -0.16,0.45 1.07,1.07 0 0 0 0.09,0.43 0.94,0.94 0 0 0 0.9,0.56 1,1 0 0 0 1,-1.09 1.36,1.36 0 0 0 -0.2,-0.68 c -0.35,-0.52 -1,-0.53 -1.57,-0.56 z m -6.53,2.79 a 3.94,3.94 0 0 1 0.13,-0.65 1.86,1.86 0 0 1 1.63,-1.35 1.59,1.59 0 0 1 0.85,0.26 1.89,1.89 0 0 1 0.79,1.73 z m 5.17,0.95 a 5.28,5.28 0 0 0 -0.4,-2.21 3.29,3.29 0 0 0 -3,-1.72 3.63,3.63 0 0 0 -2.73,1.23 4.34,4.34 0 0 0 -0.92,2.75 3.61,3.61 0 0 0 1.51,3.12 4.22,4.22 0 0 0 2.43,0.69 6.12,6.12 0 0 0 2,-0.34 A 8.54,8.54 0 0 0 83,21.5 V 20 a 5.12,5.12 0 0 1 -0.65,0.58 2.88,2.88 0 0 1 -1.79,0.6 2.45,2.45 0 0 1 -1.72,-0.62 2.89,2.89 0 0 1 -0.75,-1.51 c 0,-0.26 0,-0.44 -0.06,-0.72 z m -7.3,-3.74 H 74.4 l -2.11,5.9 c -0.11,0.32 -0.12,0.39 -0.35,0.39 L 69.71,14.63 H 67.85 L 70.59,22 h 0.88 A 2.47,2.47 0 0 0 72.88,21.68 3.35,3.35 0 0 0 74,20 Z M 64.61,12.79 a 1,1 0 1 0 1,-1 1,1 0 0 0 -1,1 m 1.87,1.84 H 64.77 V 22 h 1.71 z m -10.23,0 V 22 H 58 v -6.09 a 2.47,2.47 0 0 1 1.28,-0.32 c 1.11,0 1.54,0.51 1.7,1 a 3.62,3.62 0 0 1 0.12,1 V 22 h 1.69 V 17.55 A 2.67,2.67 0 0 0 62,15.41 C 61.18,14.7 60.1,14.63 58,14.63 Z m -1.77,-2.76 h -1.76 v 5.78 a 6.48,6.48 0 0 1 -0.12,1.79 2.59,2.59 0 0 1 -0.47,0.88 2.1,2.1 0 0 1 -1.34,0.7 3.28,3.28 0 0 1 -0.66,0.06 2.3,2.3 0 0 1 -2.36,-1.4 5.43,5.43 0 0 1 -0.21,-2 v -5.81 h -1.75 v 5.41 a 7.44,7.44 0 0 0 0.2,2.37 3.21,3.21 0 0 0 1.12,1.63 4.79,4.79 0 0 0 3,0.94 5.42,5.42 0 0 0 2.79,-0.75 3.47,3.47 0 0 0 1.46,-2.16 9.73,9.73 0 0 0 0.1,-2 z"
         id="path2" /><path
         d="m 19.72,31 a 0.35,0.35 0 0 0 -0.49,0.49 l 2.38,2.33 0.5,-0.48 L 19.72,31 m -3.85,2.83 -0.5,-0.49 2.39,-2.34 c 0.33,-0.32 0.83,0.17 0.5,0.49 l -2.39,2.34 M 5.76,17.36 a 0.35003571,0.35003571 0 0 1 -0.5,0.49 L 2.88,15.52 3.37,15 5.76,17.33 m -2.88,3.81 0.5,0.48 2.38,-2.33 C 6.09,18.97 5.59,18.48 5.27,18.8 L 2.88,21.14 M 17.76,5.63 a 0.35003571,0.35003571 0 0 0 0.5,-0.49 l -2.39,-2.33 -0.5,0.49 2.39,2.33 m 3.85,-2.82 0.5,0.49 -2.39,2.33 a 0.35003571,0.35003571 0 0 1 -0.5,-0.49 l 2.39,-2.33 m 10.11,14.55 c -0.33,0.32 0.17,0.81 0.5,0.49 L 34.6,15.51 34.11,15 31.72,17.33 m 2.89,3.77 -0.5,0.49 -2.39,-2.34 c -0.33,-0.32 0.17,-0.81 0.5,-0.48 l 2.39,2.33 M 11.79,11 c 0.33,0.32 -0.17,0.81 -0.5,0.49 L 2.88,3.3 3.37,2.81 11.79,11 m 22.32,-8.19 0.5,0.49 -8.42,8.23 c -0.33,0.32 -0.83,-0.17 -0.5,-0.49 L 34.11,2.81 M 11.29,25.12 c 0.33,-0.32 0.83,0.17 0.5,0.49 l -8.42,8.22 -0.49,-0.48 8.41,-8.23 m 23.32,8.23 -0.5,0.48 -8.42,-8.22 a 0.35003571,0.35003571 0 0 1 0.5,-0.49 l 8.42,8.23 M 11.74,23.21 A 0.35,0.35 0 0 1 11.25,23.7 L 6.69,19.24 c -0.33,-0.32 0.17,-0.81 0.5,-0.48 l 4.55,4.45 m 8,-16.63 a 0.35003571,0.35003571 0 0 0 -0.5,0.49 l 4.56,4.45 c 0.33,0.33 0.83,-0.16 0.5,-0.48 L 19.72,6.58 m 4.56,16.67 a 0.35003571,0.35003571 0 0 1 -0.5,0.49 l -4.56,-4.45 a 0.35003571,0.35003571 0 0 1 0.5,-0.49 l 4.56,4.45 m 6.47,-4 a 0.35003571,0.35003571 0 0 0 -0.5,-0.49 l -4.55,4.49 a 0.35,0.35 0 1 0 0.49,0.49 l 4.56,-4.45 m -17,-7.77 c -0.33,0.33 -0.83,-0.16 -0.5,-0.48 l 4.56,-4.46 a 0.35,0.35 0 1 1 0.49,0.49 l -4.6,4.45 m 4.55,7.77 A 0.35,0.35 0 1 0 17.76,18.8 l -4.56,4.45 a 0.35003571,0.35003571 0 0 0 0.5,0.49 l 4.55,-4.45 M 11.79,13.4 a 0.35003571,0.35003571 0 0 0 -0.5,-0.49 l -4.55,4.45 a 0.35,0.35 0 1 0 0.49,0.49 l 4.56,-4.45 m 7.93,16.67 c -0.33,0.32 -0.83,-0.17 -0.5,-0.49 l 4.56,-4.46 c 0.33,-0.32 0.83,0.17 0.5,0.49 l -4.56,4.46 M 24.28,13.4 a 0.35003571,0.35003571 0 0 0 -0.5,-0.49 l -4.56,4.45 a 0.35003571,0.35003571 0 0 0 0.5,0.49 c 0,0 4.28,-4.18 4.56,-4.45 m 6.47,4 a 0.35003571,0.35003571 0 0 1 -0.5,0.49 L 25.7,13.4 a 0.35,0.35 0 1 1 0.49,-0.49 l 4.56,4.45 m -17,7.77 c -0.33,-0.33 -0.83,0.16 -0.5,0.48 l 4.56,4.46 c 0.33,0.32 0.83,-0.17 0.49,-0.49 l -4.6,-4.45 m 4.55,-7.77 a 0.35,0.35 0 1 1 -0.49,0.49 L 13.2,13.4 a 0.35003571,0.35003571 0 0 1 0.5,-0.49 l 4.55,4.45 M 0,24.09 v 0.69 h 11.14 a 0.35,0.35 0 1 0 0,-0.69 z m 37.48,0 v 0.69 H 26.34 a 0.35,0.35 0 1 1 0,-0.69 z M 0,11.87 v 0.69 h 11.14 a 0.35,0.35 0 1 0 0,-0.69 z m 37.48,0 v 0.69 H 26.34 a 0.35,0.35 0 1 1 0,-0.69 z M 13.84,24.09 a 0.345,0.345 0 1 0 0,0.69 h 9.8 a 0.345,0.345 0 0 0 0,-0.69 z m 9.8,-12.22 a 0.35,0.35 0 1 1 0,0.69 h -9.8 a 0.35,0.35 0 1 1 0,-0.69 z m 1,24.78 h 0.7 v -10.9 a 0.35,0.35 0 0 0 -0.7,0 z M 24.64,0 h 0.7 v 10.9 a 0.35,0.35 0 0 1 -0.7,0 z m 0,23.11 a 0.35,0.35 0 0 0 0.7,0 v -9.57 a 0.35,0.35 0 0 0 -0.7,0 z m -12.5,2.64 a 0.36,0.36 0 0 1 0.71,0 v 10.9 h -0.71 z m 0,-14.85 a 0.35,0.35 0 0 0 0.7,0 V 0 h -0.7 z m 0,2.64 a 0.35,0.35 0 0 1 0.7,0 v 9.57 a 0.35,0.35 0 0 1 -0.7,0 z"
         id="path3" /></g></g></svg>
