<svg id="Ebene" xmlns="http://www.w3.org/2000/svg" width="39.7mm" height="13mm" viewBox="0 0 112.54 36.85">
  <g>
    <path d="M95.88,25.55H94.17v11.1h1.71ZM87.65,32a3.94,3.94,0,0,1,.13-.65A1.84,1.84,0,0,1,89.41,30a1.59,1.59,0,0,1,.85.26A1.89,1.89,0,0,1,91.05,32Zm5.17,1a5.34,5.34,0,0,0-.4-2.22,3.28,3.28,0,0,0-3-1.71,3.64,3.64,0,0,0-2.73,1.22A4.38,4.38,0,0,0,85.8,33a3.61,3.61,0,0,0,1.51,3.12,4.22,4.22,0,0,0,2.43.69,5.79,5.79,0,0,0,2-.35,7,7,0,0,0,.82-.38V34.66a6.08,6.08,0,0,1-.65.58,2.85,2.85,0,0,1-1.78.6,2.51,2.51,0,0,1-1.73-.62,2.92,2.92,0,0,1-.75-1.51c0-.26,0-.44-.06-.72Zm-12.75,1.8,0,1.64a4.92,4.92,0,0,0,2,.42,2.93,2.93,0,0,0,2.07-.68,2.32,2.32,0,0,0,.79-1.8,2,2,0,0,0-.69-1.52,5.56,5.56,0,0,0-1.53-.74,2.64,2.64,0,0,1-.85-.46.8.8,0,0,1-.27-.62,1,1,0,0,1,.22-.59A1.55,1.55,0,0,1,82.82,30a2.11,2.11,0,0,1,1.31.5c.13.09.24.17.36.27V29.35a4.74,4.74,0,0,0-1.62-.3,5.3,5.3,0,0,0-.92.08,2.86,2.86,0,0,0-.92.36,2.37,2.37,0,0,0-1,1.92,2,2,0,0,0,.49,1.32,3.65,3.65,0,0,0,1.34.75c.61.2,1.52.46,1.52,1.27a.9.9,0,0,1-.18.53,1.24,1.24,0,0,1-1.09.52,2.72,2.72,0,0,1-1.79-.75Zm-3.19.61a3.87,3.87,0,0,1-1.41.28,2.38,2.38,0,0,1-1.08-.21,2.21,2.21,0,0,1-1.18-1.86,4.36,4.36,0,0,1-.06-.78,3.12,3.12,0,0,1,1.11-2.55,2,2,0,0,1,1-.31,1.49,1.49,0,0,1,1.47,1,2.1,2.1,0,0,1,.12.75Zm1.68-6.24-.92.55a5.6,5.6,0,0,0-2.43-.65,3.75,3.75,0,0,0-3.41,2,4.46,4.46,0,0,0-.42,1.9,4.31,4.31,0,0,0,.5,2,4.06,4.06,0,0,0,.65.82,3.85,3.85,0,0,0,2.52.82c.26,0,.5,0,.75,0h2.76ZM65.11,27.68a2.3,2.3,0,0,1,1.17-.29,2.25,2.25,0,0,1,2,1.07,1.3,1.3,0,0,1,.19.67A1.71,1.71,0,0,1,68,30.21c-.37.42-.89.82-.89,1.38a.92.92,0,0,0,.13.49,2.29,2.29,0,0,0,.36.44c.46.43,1.06.79,1.06,1.49a1.58,1.58,0,0,1-.45,1.11,2.15,2.15,0,0,1-1.67.62,4.45,4.45,0,0,1-1.41-.24Zm-1.76,9h3.18a5.76,5.76,0,0,0,1.39-.15,3.17,3.17,0,0,0,2.17-1.65,2.53,2.53,0,0,0,.23-1.08,2.28,2.28,0,0,0-.66-1.7l-.39-.36-.56-.52A3.32,3.32,0,0,0,69.92,29a2.26,2.26,0,0,0-.53-1.41A2.94,2.94,0,0,0,67,26.48c-.2,0-.41,0-.61,0H63.35Zm-8.72-7.4H53.51V30.4h1.12v6.25h1.71V30.4h1.31V29.25H56.34V27.77c0-.12-.07-.88.55-1.1a1.08,1.08,0,0,1,.4-.07.84.84,0,0,1,.35.07V25.55a4.72,4.72,0,0,0-1.86.24A2.41,2.41,0,0,0,54.64,28c0,.17,0,.35,0,.5Zm-3.38,3.66a3.29,3.29,0,0,1-1,2.69,1.78,1.78,0,0,1-2.1-.16,2.61,2.61,0,0,1-.82-1.67,6.29,6.29,0,0,1-.06-.85,3,3,0,0,1,1-2.56,1.66,1.66,0,0,1,1-.33,1.72,1.72,0,0,1,1,.27c1.09.69,1,2.4,1,2.61m1.77,0a4.93,4.93,0,0,0-.14-1.11,3.37,3.37,0,0,0-2.42-2.59,4.23,4.23,0,0,0-1.17-.16,3.65,3.65,0,0,0-3.4,2A4.37,4.37,0,0,0,45.46,33a3.61,3.61,0,0,0,3.77,3.88,3.48,3.48,0,0,0,3.65-2.75A5.53,5.53,0,0,0,53,32.92" transform="translate(0)"/>
    <path d="M112.54,14.63H111l-2.33,6.54-2.32-6.54h-1.89L107.25,22a1.11,1.11,0,0,1,.29.14.79.79,0,0,1,.3.65.9.9,0,0,1-.46.79,2.82,2.82,0,0,1-1.31.11V25a4.63,4.63,0,0,0,1.73-.22,2.3,2.3,0,0,0,1.35-1.36,12.37,12.37,0,0,0,.53-1.31Zm-8.68,0h-1.29V12.1c0-.18,0-.45-.23-.45a.43.43,0,0,0-.2.06c-.08.06-.09.17-.11.36a3.44,3.44,0,0,1-.72,1.81,2,2,0,0,1-1.59.76v1.14h1.12V22h1.73V15.78h1.29Zm-7.3-1.84a1,1,0,1,0,1-1,1,1,0,0,0-1,1m1.87,1.84H96.72V22h1.71Zm-8.14,5.54,0,1.64a4.87,4.87,0,0,0,2,.42,2.9,2.9,0,0,0,2.07-.68,2.3,2.3,0,0,0,.79-1.8,2,2,0,0,0-.69-1.52,5.86,5.86,0,0,0-1.53-.74A2.64,2.64,0,0,1,92,17a.79.79,0,0,1-.27-.61,1,1,0,0,1,.22-.6A1.58,1.58,0,0,1,93,15.41a2.11,2.11,0,0,1,1.31.5c.12.09.24.17.36.27V14.73a4.74,4.74,0,0,0-1.62-.3,6.57,6.57,0,0,0-.92.08,2.82,2.82,0,0,0-.92.37,2.34,2.34,0,0,0-1,1.91,2,2,0,0,0,.49,1.32,3.65,3.65,0,0,0,1.34.75c.61.2,1.51.46,1.51,1.27a.86.86,0,0,1-.17.53,1.24,1.24,0,0,1-1.09.52,2.72,2.72,0,0,1-1.79-.75ZM84.6,14.63V22h1.71V15.74a2.21,2.21,0,0,1,1.24-.22.68.68,0,0,0-.16.45,1.07,1.07,0,0,0,.09.43.94.94,0,0,0,.9.56,1,1,0,0,0,1-1.09,1.36,1.36,0,0,0-.2-.68c-.35-.52-1-.53-1.57-.56Zm-6.53,2.79a3.94,3.94,0,0,1,.13-.65,1.86,1.86,0,0,1,1.63-1.35,1.59,1.59,0,0,1,.85.26,1.89,1.89,0,0,1,.79,1.73Zm5.17.95a5.28,5.28,0,0,0-.4-2.21,3.29,3.29,0,0,0-3-1.72,3.63,3.63,0,0,0-2.73,1.23,4.34,4.34,0,0,0-.92,2.75,3.61,3.61,0,0,0,1.51,3.12,4.22,4.22,0,0,0,2.43.69,6.12,6.12,0,0,0,2-.34A8.54,8.54,0,0,0,83,21.5V20a5.12,5.12,0,0,1-.65.58,2.88,2.88,0,0,1-1.79.6,2.45,2.45,0,0,1-1.72-.62,2.89,2.89,0,0,1-.75-1.51c0-.26,0-.44-.06-.72Zm-7.3-3.74H74.4l-2.11,5.9c-.11.32-.12.39-.35.39l-2.23-6.29H67.85L70.59,22h.88a2.47,2.47,0,0,0,1.41-.32A3.35,3.35,0,0,0,74,20ZM64.61,12.79a1,1,0,1,0,1-1,1,1,0,0,0-1,1m1.87,1.84H64.77V22h1.71Zm-10.23,0V22H58V15.91a2.47,2.47,0,0,1,1.28-.32c1.11,0,1.54.51,1.7,1a3.62,3.62,0,0,1,.12,1V22h1.69V17.55A2.67,2.67,0,0,0,62,15.41c-.82-.71-1.9-.78-4-.78Zm-1.77-2.76H52.72v5.78a6.48,6.48,0,0,1-.12,1.79,2.59,2.59,0,0,1-.47.88,2.1,2.1,0,0,1-1.34.7,3.28,3.28,0,0,1-.66.06,2.3,2.3,0,0,1-2.36-1.4,5.43,5.43,0,0,1-.21-2V11.87H45.81v5.41a7.44,7.44,0,0,0,.2,2.37,3.21,3.21,0,0,0,1.12,1.63,4.79,4.79,0,0,0,3,.94,5.42,5.42,0,0,0,2.79-.75,3.47,3.47,0,0,0,1.46-2.16,9.73,9.73,0,0,0,.1-2Z" transform="translate(0)"/>
    <path d="M19.72,31a.35.35,0,0,0-.49.49l2.38,2.33.5-.48L19.72,31m-3.85,2.83-.5-.49L17.76,31c.33-.32.83.17.5.49l-2.39,2.34M5.76,17.36a.35.35,0,0,1-.5.49L2.88,15.52,3.37,15l2.39,2.33M2.88,21.14l.5.48,2.38-2.33c.33-.32-.17-.81-.49-.49L2.88,21.14M17.76,5.63a.35.35,0,0,0,.5-.49L15.87,2.81l-.5.49,2.39,2.33m3.85-2.82.5.49L19.72,5.63a.35.35,0,0,1-.5-.49l2.39-2.33M31.72,17.36c-.33.32.17.81.5.49l2.38-2.34L34.11,15l-2.39,2.33m2.89,3.77-.5.49-2.39-2.34c-.33-.32.17-.81.5-.48l2.39,2.33M11.79,11c.33.32-.17.81-.5.49L2.88,3.3l.49-.49L11.79,11M34.11,2.81l.5.49-8.42,8.23c-.33.32-.83-.17-.5-.49l8.42-8.23M11.29,25.12c.33-.32.83.17.5.49L3.37,33.83l-.49-.48,8.41-8.23m23.32,8.23-.5.48-8.42-8.22a.35.35,0,0,1,.5-.49l8.42,8.23M11.74,23.21a.35.35,0,0,1-.49.49L6.69,19.24c-.33-.32.17-.81.5-.48l4.55,4.45m8-16.63a.35.35,0,0,0-.5.49l4.56,4.45c.33.33.83-.16.5-.48L19.72,6.58m4.56,16.67a.35.35,0,0,1-.5.49l-4.56-4.45a.35.35,0,0,1,.5-.49l4.56,4.45m6.47-4a.35.35,0,0,0-.5-.49L25.7,23.25a.35.35,0,1,0,.49.49l4.56-4.45m-17-7.77c-.33.33-.83-.16-.5-.48l4.56-4.46a.35.35,0,1,1,.49.49L13.7,11.52m4.55,7.77a.35.35,0,1,0-.49-.49L13.2,23.25a.35.35,0,0,0,.5.49l4.55-4.45M11.79,13.4a.35.35,0,0,0-.5-.49L6.74,17.36a.35.35,0,1,0,.49.49l4.56-4.45m7.93,16.67c-.33.32-.83-.17-.5-.49l4.56-4.46c.33-.32.83.17.5.49l-4.56,4.46M24.28,13.4a.35.35,0,0,0-.5-.49l-4.56,4.45a.35.35,0,0,0,.5.49S24,13.67,24.28,13.4m6.47,4a.35.35,0,0,1-.5.49L25.7,13.4a.35.35,0,1,1,.49-.49l4.56,4.45m-17,7.77c-.33-.33-.83.16-.5.48l4.56,4.46c.33.32.83-.17.49-.49L13.7,25.13m4.55-7.77a.35.35,0,1,1-.49.49L13.2,13.4a.35.35,0,0,1,.5-.49l4.55,4.45M0,24.09v.69H11.14a.35.35,0,1,0,0-.69Zm37.48,0v.69H26.34a.35.35,0,1,1,0-.69ZM0,11.87v.69H11.14a.35.35,0,1,0,0-.69Zm37.48,0v.69H26.34a.35.35,0,1,1,0-.69ZM13.84,24.09a.34.34,0,1,0,0,.69h9.8a.34.34,0,0,0,0-.69Zm9.8-12.22a.35.35,0,1,1,0,.69h-9.8a.35.35,0,1,1,0-.69Zm1,24.78h.7V25.75a.35.35,0,0,0-.7,0ZM24.64,0h.7V10.9a.35.35,0,0,1-.7,0Zm0,23.11a.35.35,0,0,0,.7,0V13.54a.35.35,0,0,0-.7,0Zm-12.5,2.64a.36.36,0,0,1,.71,0v10.9h-.71Zm0-14.85a.35.35,0,0,0,.7,0V0h-.7Zm0,2.64a.35.35,0,0,1,.7,0v9.57a.35.35,0,0,1-.7,0Z" transform="translate(0)"/>
  </g>
</svg>
